<svg xmlns="http://www.w3.org/2000/svg" viewBox="0 0 339 57"><g><path d="m16.09,24.21c9.2,0,16.3,6.8,16.3,15.9s-6.8,15.8-16.3,15.8S-.14,49.31-.14,40.21c-.12-8.71,6.85-15.87,15.56-16h.67Zm0,24.6c4.8,0,8.3-3.6,8.3-8.7s-3.5-8.9-8.3-8.9-8.3,3.7-8.3,8.9,3.6,8.7,8.3,8.7Z"/><path d="m36.86,13.41h8v41.7h-8V13.41Z"/><path d="m51.19,13.41h8v41.7h-8V13.41Z"/><path d="m69.29,13.11c2.54,0,4.6,2.06,4.6,4.6s-2.06,4.6-4.6,4.6-4.6-2.06-4.6-4.6h0c-.02-2.51,1.99-4.57,4.5-4.6h.1Zm-3.9,11.89h8v30.2h-8v-30.2Z"/><path d="m92.79,24.21c9.3,0,14.7,6.2,14.7,16.1.03.57,0,1.14-.1,1.7h-21.2c.2,4,3.4,6.9,7.8,6.9,2.9.08,5.65-1.31,7.3-3.7l5.2,4c-1.2,2.1-5.2,6.6-12.7,6.6-9.7,0-15.9-6.7-15.9-15.7s6.3-15.9,14.9-15.9Zm6.6,12.6c-.02-3.4-2.79-6.13-6.19-6.11,0,0-.01,0-.02,0h-.32c-3.45-.04-6.32,2.65-6.5,6.1h13.03Z"/><path d="m113.29,31.41h-3.2v-6.5h3.2v-1c0-7.8,5.2-10.4,11.1-10.4,1.2,0,2,.1,2.6.1v6.7c-.2,0-.9-.1-1.6-.1-2.8,0-4.2,1.3-4.2,3.9v.89h5.2v6.5h-5.2v23.7h-8v-23.79h.1Z"/><path d="m144.69,24.21c9.2,0,16.3,6.8,16.3,15.9s-6.9,15.8-16.3,15.8-16.2-6.6-16.2-15.7c-.12-8.71,6.85-15.87,15.56-16h.64Zm0,24.6c4.8,0,8.3-3.6,8.3-8.7s-3.5-8.9-8.3-8.9-8.2,3.7-8.2,8.9,3.37,8.7,8.2,8.7Z"/><path d="m181.59,32.31c-5.9,0-8.1,3.7-8.1,9.7v13.2h-8v-30.21h7.8v4.4c1.46-3.24,4.75-5.26,8.3-5.1v8.01Z"/><path d="m215.79,55.11h-7.5v-3.11c-2.25,2.54-5.5,3.97-8.9,3.9-8.7,0-14.8-6.5-14.8-15.8s5.7-15.9,14.3-15.9c3.41-.13,6.69,1.31,8.9,3.9v-14.69h8v41.7Zm-15.5-23.9c-4.6,0-7.7,3.6-7.7,8.9s3.2,8.7,7.7,8.7c4.8,0,7.7-3.9,7.7-8.7.1-5.6-3.3-8.9-7.7-8.9Z"/><path d="m301.29,47l2.1,6.5c-2.68,2.1-5.99,3.23-9.4,3.2-9.4,0-16.1-6.6-16.1-15.7-.17-8.61,6.66-15.73,15.27-15.9h.7c3.44-.04,6.79,1.09,9.5,3.2l-2.2,6.7c-1.87-1.83-4.38-2.87-7-2.9-5.1,0-8.3,4-8.3,8.8-.21,4.63,3.37,8.56,8,8.79h.59c2.52-.09,4.94-1.04,6.84-2.69Z"/><path d="m322.39,25.11c9.2,0,16.3,6.8,16.3,15.9s-6.8,15.7-16.3,15.7-16.2-6.6-16.2-15.7,7-15.9,16.2-15.9Zm0,24.6c4.8,0,8.3-3.6,8.3-8.7s-3.5-8.9-8.3-8.9-8.3,3.7-8.3,8.9,3.6,8.7,8.3,8.7Z"/></g><path fill="#e51f44" d="m272.79,26.11l-1.9-.9c-.23-.11-.46-.21-.7-.3-2.8-1.2-7.9-2.1-11.1,5.3l-1,3c-.1.2-.2.5-.3.7-.7,1.8-1.5,3.6-2.4,5.4l-15.3-20.8s-1.5-2.2-2.1-3.4c-.4-.84-.6-1.77-.6-2.7-.1-1.69.48-3.34,1.6-4.6,1.12-1.16,2.69-1.78,4.3-1.7,1.54-.07,3.05.47,4.2,1.5.8.7,1.3,2.4,1.7,4.1.1.4.2,1.4.2,1.4l6.6-1.4v-.1c-.14-1.72-.55-3.4-1.2-5-.54-1.24-1.36-2.34-2.4-3.2-2.46-2.3-5.74-3.52-9.1-3.4-3.41-.08-6.71,1.18-9.2,3.5-2.42,2.28-3.76,5.48-3.7,8.8,0,.93.09,1.87.2,2.8.15.92.38,1.82.7,2.7.39.94.86,1.84,1.4,2.7.62.99,1.32,1.93,2.1,2.8-2.01,1.03-3.95,2.2-5.8,3.5-1.6,1.36-2.95,2.98-4,4.8-1.49,2.51-2.29,5.38-2.3,8.3-.08,4.51,1.78,8.84,5.1,11.9,3.22,3.19,7.57,4.99,12.1,5h.3c2.21-.02,4.41-.39,6.5-1.1,1.99-.67,3.85-1.69,5.5-3,.6-.47,1.16-.97,1.7-1.5l.8-.8,1.3,1.7c1.9,2.7,4.1,4.2,6.5,4.6.4.08.8.11,1.2.1,2.08-.06,4.08-.8,5.7-2.1,1.2-.7,2.4-1.6,2.4-1.6l-3.6-5.3-2.2,1.3c-1.1.6-2.6,1.3-4.9-1.8l-1.7-2.3c.8-1.3,1.5-2.7,2.2-4.1,1.21-2.55,2.22-5.19,3-7.9,1.4-3,2.6-2.7,3.6-2.4.5.2,1.9.9,1.9.9l2.7-5.4Zm-23,20.3h0c-.3.3-.6.5-.9.8-2.28,1.96-5.19,3.03-8.2,3h0c-5.94-.15-10.71-4.96-10.83-10.9-.04-1.57.34-3.12,1.1-4.5.64-1.32,1.56-2.48,2.7-3.4,1.33-1.05,2.78-1.95,4.3-2.7l12.9,16.7c-.38.31-.74.64-1.07,1h0Z"/></svg>
