<svg xmlns="http://www.w3.org/2000/svg" class="ampersand" viewBox="0 0 773.16 889.74">
    <defs>
        <style>.cls-1 {
            fill: none;
            stroke: #e62145;
            stroke-linecap: round;
            stroke-linejoin: round;
            stroke-width: 1px;
            animation: dash 5s linear infinite;
            stroke-dasharray: 1000;
            stroke-dashoffset: 1000;
            display: block;
            }
            @keyframes dash {
            from {
            stroke-dashoffset: 2000;
            }
            to {
            stroke-dashoffset: 0;
            }
            }
        </style>
    </defs>
    <path id="ampersand" class="cls-1" d="M750.16,406c-181.6-101.3-200.42,88.1-251.3,190.64C476.43,564,256.82,274,247.56,247.08c-27.4-56.41,8.69-134.3,76.55-130,71.69-2.52,85.51,62.25,88.1,101.1L507.53,198C501.67,43.26,310.58-27.95,191.23,79.55c-56.69,51.57-65.4,137-40.43,206.53a280.16,280.16,0,0,0,50.55,79.43C-72.41,481-4.39,838.63,275,849.33c80.51,1.36,159.69-32.68,213.74-92.43,30.07,43.15,67.11,85.71,112.66,91,49.24,10.75,102.38-28.8,134.31-52l-52-76.54c-66.43,44.23-74.56,32-127.1-40.44,11.56-18.77,54.88-130,75.1-173.31,27.77-59.3,51.11-33.39,79.44-21.66ZM405,710.68A178.92,178.92,0,0,1,286.56,754C151.66,752.82,70.32,575.44,186,482a345.78,345.78,0,0,1,61.52-38.54L433.87,684.69C428.22,689.1,409.32,706.35,405,710.68Z"></path>
</svg>
